<?xml version="1.0" encoding="iso-8859-1"?>
<!-- Uploaded to: SVG Repo, www.svgrepo.com, Generator: SVG Repo Mixer Tools -->
<svg fill="#000000" height="800px" width="800px" version="1.1" id="Layer_1" xmlns="http://www.w3.org/2000/svg" xmlns:xlink="http://www.w3.org/1999/xlink" 
	 viewBox="0 0 512.002 512.002" xml:space="preserve">
<g>
	<g>
		<path d="M469.332,384.002H324.266c-4.719,0-8.533,4.582-8.533,10.24v32.427c0,4.71,3.823,8.533,8.533,8.533h145.067
			c4.71,0,8.533-3.823,8.533-8.533v-32.427C477.866,388.585,474.051,384.002,469.332,384.002z"/>
	</g>
</g>
<g>
	<g>
		<path d="M503.466,452.269H290.132c-4.719,0-8.533,3.814-8.533,8.533v42.667c0,4.719,3.814,8.533,8.533,8.533h213.333
			c4.719,0,8.533-3.814,8.533-8.533v-42.667C511.999,456.083,508.185,452.269,503.466,452.269z"/>
	</g>
</g>
<g>
	<g>
		<path d="M253.499,28.102l-25.6-25.6c-3.337-3.336-8.73-3.336-12.066,0l-85.333,85.333c-3.337,3.336-3.337,8.73,0,12.066l25.6,25.6
			c1.664,1.664,3.849,2.5,6.033,2.5c2.185,0,4.369-0.836,6.033-2.5l85.333-85.333C256.835,36.832,256.835,31.439,253.499,28.102z"/>
	</g>
</g>
<g>
	<g>
		<path d="M210.832,241.436l-59.733-59.733c-3.337-3.337-8.738-3.337-12.066,0l-25.6,25.6c-3.336,3.328-3.336,8.738,0,12.066
			l59.733,59.733c1.664,1.664,3.849,2.5,6.033,2.5c2.185,0,4.369-0.836,6.033-2.5l25.6-25.6
			C214.169,250.165,214.169,244.764,210.832,241.436z"/>
	</g>
</g>
<g>
	<g>
		<path d="M147.566,279.102l-34.133-34.133c-3.337-3.337-8.738-3.337-12.066,0L2.499,343.836c-3.328,3.328-3.328,8.738,0,12.066
			l34.133,34.133c1.664,1.664,3.849,2.5,6.033,2.5c2.185,0,4.369-0.836,6.033-2.5l98.867-98.867
			C150.902,287.832,150.902,282.43,147.566,279.102z"/>
	</g>
</g>
<g>
	<g>
		<path d="M321.765,131.97l-61.201-61.201c-3.328-3.328-8.738-3.328-12.066,0l-51.2,51.2c-3.337,3.337-3.337,8.738,0,12.066
			l7.501,7.501l-28.834,28.834c-3.337,3.337-3.337,8.738,0,12.066l34.133,34.133c3.336,3.336,8.738,3.336,12.066,0l28.834-28.834
			l7.501,7.501c3.328,3.328,8.738,3.328,12.066,0l51.2-51.2C325.102,140.7,325.102,135.298,321.765,131.97z"/>
	</g>
</g>
<g>
	<g>
		<path d="M390.032,164.636l-25.6-25.6c-3.337-3.337-8.73-3.337-12.066,0l-85.333,85.333c-3.337,3.337-3.337,8.73,0,12.066
			l25.6,25.6c1.664,1.664,3.849,2.5,6.033,2.5c2.185,0,4.369-0.836,6.033-2.5l85.333-85.333
			C393.369,173.365,393.369,167.972,390.032,164.636z"/>
	</g>
</g>
</svg>