<svg width="102" height="47" viewBox="0 0 102 47" fill="none" xmlns="http://www.w3.org/2000/svg">
<rect x="1" y="1" width="100" height="45" rx="22.5" stroke="#FAFAFA"/>
<path d="M26.2655 15.67C26.2655 15.502 26.3425 15.418 26.4965 15.418H35.6315C35.7575 15.418 35.8205 15.481 35.8205 15.607L35.7995 16.468C35.7995 16.608 35.7295 16.678 35.5895 16.678H28.0925C27.9245 16.678 27.8405 16.755 27.8405 16.909V22.306C27.8405 22.446 27.9175 22.516 28.0715 22.516H33.7625C33.8885 22.516 33.9515 22.579 33.9515 22.705V23.587C33.9515 23.643 33.9375 23.685 33.9095 23.713C33.8955 23.741 33.8465 23.755 33.7625 23.755H28.0505C27.9105 23.755 27.8405 23.825 27.8405 23.965V29.53C27.8405 29.67 27.9105 29.74 28.0505 29.74H35.8835C36.0375 29.74 36.1145 29.803 36.1145 29.929V30.811C36.1145 30.867 36.0935 30.916 36.0515 30.958C36.0235 30.986 35.9745 31 35.9045 31H26.5175C26.3495 31 26.2655 30.916 26.2655 30.748V15.67ZM39.14 31C38.972 31 38.888 30.916 38.888 30.748V20.101C38.888 19.947 38.958 19.87 39.098 19.87H40.001C40.141 19.87 40.211 19.94 40.211 20.08V21.319C40.211 21.389 40.225 21.438 40.253 21.466C40.295 21.48 40.344 21.452 40.4 21.382C40.89 21.018 41.338 20.71 41.744 20.458C42.15 20.192 42.563 19.996 42.983 19.87C43.403 19.73 43.858 19.66 44.348 19.66C45.454 19.66 46.294 19.954 46.868 20.542C47.442 21.116 47.729 21.865 47.729 22.789V30.727C47.729 30.909 47.645 31 47.477 31H46.595C46.511 31 46.448 30.979 46.406 30.937C46.364 30.895 46.343 30.832 46.343 30.748V23.167C46.343 22.425 46.154 21.851 45.776 21.445C45.412 21.025 44.824 20.815 44.012 20.815C43.564 20.815 43.144 20.885 42.752 21.025C42.374 21.151 41.989 21.347 41.597 21.613C41.205 21.865 40.764 22.194 40.274 22.6V30.748C40.274 30.916 40.183 31 40.001 31H39.14ZM60.8132 19.765C60.9672 19.765 61.0722 19.793 61.1282 19.849C61.1842 19.891 61.2122 19.968 61.2122 20.08V20.605C61.2122 20.731 61.1842 20.829 61.1282 20.899C61.0862 20.955 60.9882 20.983 60.8342 20.983C60.5822 20.983 60.3722 21.004 60.2042 21.046C60.0362 21.074 59.8752 21.123 59.7212 21.193C59.3712 21.347 59.2312 21.508 59.3012 21.676C59.3572 21.844 59.4342 22.047 59.5322 22.285C59.6302 22.523 59.6792 22.838 59.6792 23.23C59.6792 23.846 59.5252 24.413 59.2172 24.931C58.9092 25.449 58.4262 25.862 57.7682 26.17C57.1102 26.464 56.2702 26.611 55.2482 26.611C54.5062 26.611 53.9182 26.66 53.4842 26.758C53.0642 26.842 52.7632 26.961 52.5812 27.115C52.4132 27.255 52.3292 27.402 52.3292 27.556C52.3292 27.794 52.4902 27.969 52.8122 28.081C53.1342 28.179 53.6662 28.249 54.4082 28.291L57.0332 28.438C58.2232 28.508 59.0912 28.802 59.6372 29.32C60.1972 29.824 60.4772 30.489 60.4772 31.315C60.4772 32.379 60.0152 33.205 59.0912 33.793C58.1812 34.381 56.8932 34.675 55.2272 34.675C53.5192 34.675 52.2102 34.409 51.3002 33.877C50.4042 33.359 49.9562 32.617 49.9562 31.651C49.9562 31.161 50.1172 30.713 50.4392 30.307C50.7752 29.887 51.2582 29.509 51.8882 29.173C52.0562 29.103 52.0562 29.026 51.8882 28.942C51.6082 28.816 51.3912 28.655 51.2372 28.459C51.0832 28.263 51.0062 28.039 51.0062 27.787C51.0062 27.605 51.0622 27.423 51.1742 27.241C51.2862 27.059 51.4542 26.891 51.6782 26.737C51.9022 26.569 52.1962 26.429 52.5602 26.317C52.6442 26.289 52.6792 26.254 52.6652 26.212C52.6652 26.156 52.6232 26.107 52.5392 26.065C51.9512 25.743 51.5102 25.351 51.2162 24.889C50.9362 24.427 50.7962 23.874 50.7962 23.23C50.7962 22.138 51.1952 21.277 51.9932 20.647C52.8052 20.017 53.9462 19.702 55.4162 19.702C56.1302 19.702 56.7322 19.786 57.2222 19.954C57.7262 20.108 58.1532 20.339 58.5032 20.647C58.5732 20.703 58.6432 20.738 58.7132 20.752C58.7832 20.752 58.8532 20.717 58.9232 20.647C59.0772 20.521 59.2522 20.388 59.4482 20.248C59.6442 20.108 59.8612 19.996 60.0992 19.912C60.3372 19.814 60.5752 19.765 60.8132 19.765ZM55.2692 25.624C56.3052 25.624 57.0752 25.414 57.5792 24.994C58.0972 24.574 58.3562 23.979 58.3562 23.209C58.3562 22.411 58.0972 21.795 57.5792 21.361C57.0752 20.913 56.3052 20.689 55.2692 20.689C54.2612 20.689 53.4842 20.913 52.9382 21.361C52.3922 21.795 52.1192 22.411 52.1192 23.209C52.1192 23.993 52.3922 24.595 52.9382 25.015C53.4842 25.421 54.2612 25.624 55.2692 25.624ZM53.3372 29.467C53.0992 29.453 52.8122 29.53 52.4762 29.698C52.1542 29.866 51.8672 30.104 51.6152 30.412C51.3632 30.72 51.2372 31.084 51.2372 31.504C51.2372 31.966 51.3982 32.358 51.7202 32.68C52.0422 33.016 52.5112 33.268 53.1272 33.436C53.7572 33.618 54.5202 33.709 55.4162 33.709C56.6342 33.709 57.5582 33.52 58.1882 33.142C58.8182 32.778 59.1332 32.218 59.1332 31.462C59.1332 30.944 58.9652 30.531 58.6292 30.223C58.3072 29.901 57.7402 29.719 56.9282 29.677L53.3372 29.467Z" fill="#FAFAFA"/>
<path d="M81 26.5L75 20.5L69 26.5" stroke="#FAFAFA" stroke-linecap="round" stroke-linejoin="round"/>
</svg>
